<svg width="156" height="58" viewBox="0 0 156 58" fill="none" xmlns="http://www.w3.org/2000/svg">
<g clip-path="url(#clip0_155_307)">
<path d="M61.1289 40.1236C59.8467 38.4989 58.699 36.7479 57.8539 34.8545C56.8534 32.4199 56.3215 29.8304 56.1855 27.2135C56.4436 26.7596 58.0252 23.9969 59.0884 22.6836C60.2486 21.25 61.812 18.518 61.2445 15.5359C60.8556 13.4925 60.4138 12.3105 60.1738 11.7685C60.4718 11.3777 60.7915 11.0018 61.1359 10.644C61.7898 10.0105 62.4947 9.35619 63.389 9.09724C64.1821 8.85081 65.1084 9.00674 65.727 9.57663C66.6686 10.5192 66.3516 12.0042 65.9233 13.1208C65.2569 14.7516 64.2494 16.212 63.4465 17.7755C61.5633 21.3498 60.0174 25.2207 59.842 29.3004C59.8003 31.5823 59.913 33.9973 60.888 36.0964C60.9229 36.1497 60.9614 36.1948 61.0017 36.2333C61.0069 37.6167 61.6213 38.9597 62.3341 40.126C63.3667 41.7623 64.6726 43.2181 65.5776 44.9371C65.6124 45.0034 65.6458 45.0702 65.6797 45.1371C64.2271 43.4079 62.542 41.8871 61.1289 40.1236Z" fill="white"/>
<path d="M100.994 38.5339C99.5565 42.5556 97.076 46.1536 94.0038 49.1112C91.6129 48.7566 84.4011 47.8637 80.0727 49.2374C75.7363 50.6129 71.3313 55.5043 69.934 57.1592C68.8954 56.6353 67.892 56.0241 67.0349 55.2333C66.1624 54.443 65.4231 53.5236 64.7094 52.5913C63.7562 51.3141 62.8224 49.921 62.4669 48.3478C62.208 46.8274 63.6067 46.7397 64.4778 47.6168C65.3405 48.4048 65.9359 49.5274 67.0223 50.0449C68.7659 50.8547 70.2398 49.1451 71.5457 48.2285C73.1649 47.0149 74.9302 45.9406 76.8575 45.2978C78.9946 44.6774 81.3623 44.9317 83.3263 45.9745C84.1088 46.4061 84.8963 46.8785 85.4973 47.5505C85.7089 47.8066 85.7409 48.1533 86.1563 48.1649C86.47 48.1821 86.7424 47.8962 86.7108 47.5848C86.6835 47.2307 86.3521 46.859 86.0973 46.6024C84.0308 44.6672 81.1303 43.6429 78.3055 43.9209C75.3442 44.2254 72.7486 45.9643 70.4305 47.7199C69.7089 48.2396 69.0262 48.9153 68.1565 49.1655C68.1087 49.1696 68.0628 49.1701 68.0173 49.1696C67.9222 48.1798 67.686 47.2052 67.3551 46.2687C66.6051 44.1056 65.1943 42.2846 63.8606 40.4566C63.1705 39.4788 62.4758 38.3483 62.2029 37.1486C61.9945 36.3008 61.9792 34.599 63.0647 34.3855C64.1859 34.7238 64.5599 36.3597 64.9261 37.3435C65.1442 37.9306 65.302 38.6272 65.8617 38.9873C66.2993 39.2648 66.8905 39.1024 67.2117 38.7219C67.9329 37.7635 68.6522 36.7723 69.649 36.0771C71.4185 34.8148 73.6884 34.3108 75.825 34.7136C76.5819 34.8366 77.2826 35.1382 77.9064 35.5694C77.8869 35.5466 77.8683 35.523 77.8521 35.4993C77.8446 35.4854 77.8372 35.4715 77.8302 35.4575C77.8535 35.5002 77.8818 35.5383 77.9129 35.574C77.9815 35.6218 78.0498 35.6705 78.1166 35.7211C78.3268 35.8056 78.5278 35.748 78.667 35.6223C79.0893 35.4719 79.5538 34.8566 79.8731 34.586C81.4756 33.0327 82.5365 30.9861 83.13 28.8495C84.5928 23.3655 81.4431 17.6495 77.9249 13.6148C77.6929 13.3479 77.4465 13.095 77.1991 12.8425C77.0543 12.6959 76.8998 12.5585 76.7615 12.4063C76.671 12.3065 76.3396 11.9947 76.5099 11.8671C76.8961 11.577 77.5397 11.7496 77.9588 11.8559C78.7468 12.0555 79.5032 12.3729 80.25 12.6894C80.5535 12.8184 80.856 12.9498 81.16 13.0769C81.3749 13.1665 81.5962 13.2723 81.8227 13.3289C82.7898 13.6779 83.5876 12.7785 84.2925 12.2499C85.2044 11.5 86.1099 10.7412 87.0301 10.001C87.49 9.63438 87.9639 9.26915 88.4567 8.9016C88.5143 8.85566 88.5746 8.81064 88.6368 8.76562C88.6382 8.76655 93.3184 11.3181 96.9071 9.05382C98.2344 10.938 99.3106 13.0073 100.166 15.143C101.14 17.7154 101.98 20.3532 102.463 23.0657C102.554 23.6263 102.636 24.1893 102.7 24.754C102.758 25.0144 102.709 25.3323 102.779 25.5963C102.779 25.626 102.78 25.6553 102.778 25.6836C102.806 26.4688 102.815 27.2545 102.823 28.0402C102.858 31.6038 102.15 35.1647 100.994 38.5339Z" fill="white"/>
<path fill-rule="evenodd" clip-rule="evenodd" d="M103.918 26.2213C103.988 28.8933 103.686 31.5473 103.059 34.1383C101.77 40.1693 98.4142 45.4953 93.8422 49.5693C88.4922 54.4723 81.4302 58.2453 74.0092 57.7963C72.8702 57.7233 71.4381 57.6943 69.1111 56.7563C67.2421 55.7763 65.6292 54.3723 64.3572 52.6813C63.3332 51.4413 62.4472 50.0893 61.8052 48.6113C61.4732 47.8453 61.2352 46.9653 61.4592 46.1373C61.8452 44.7093 63.4552 44.4383 64.6092 45.1393C65.0252 45.4013 65.3781 45.7423 65.7101 46.1023C65.9421 46.3273 66.1651 46.6153 66.3981 46.8963C66.1571 46.3013 65.7361 45.7213 65.3821 45.2633C64.3561 43.9793 63.2142 42.7923 62.0712 41.6133C60.2942 39.7693 58.7612 37.6883 57.5352 35.4403C54.7452 30.0513 54.5281 23.5983 55.9081 17.7693C56.6551 14.4793 57.9552 11.2133 60.3192 8.74527C61.4432 7.56527 62.9741 6.45327 64.6891 6.73527C65.9011 6.89027 66.9922 7.76027 67.3052 8.95827C67.8312 11.0053 66.7142 12.9973 65.7382 14.7253C64.9652 16.0633 64.2142 17.4163 63.5552 18.8153C62.0112 22.0443 60.8621 25.5563 60.9291 29.1693C60.9761 30.5183 61.0712 31.8943 61.4322 33.1993C62.1082 31.9913 63.5362 31.5883 64.6522 32.9993C65.6102 34.0713 65.7411 35.5843 66.3981 36.8133C68.3001 33.9813 71.0792 32.2183 74.5612 32.2913C75.8562 32.3533 77.2822 32.5743 78.3502 33.3503C79.1402 32.6453 79.8022 31.9453 80.4092 31.1033C81.6612 29.1503 82.5032 26.8623 82.4462 24.5213C82.3052 21.6403 81.1371 18.8953 79.6421 16.4633C78.6961 14.9773 77.6022 13.5823 76.3682 12.3243C76.1012 11.9753 75.4892 11.6113 75.4402 11.1523C75.3042 10.7633 75.3782 10.2783 75.6542 9.98227C76.9242 8.64227 79.5792 10.0983 81.0062 10.6203C81.3442 10.7613 81.6821 10.9023 82.0231 11.0363C82.1451 11.0773 82.2721 11.1663 82.3981 11.0943C83.2801 10.5933 84.0062 9.85827 84.8002 9.23427C86.0652 8.17227 87.2591 7.24227 88.5621 6.27627C88.6351 5.70727 88.5431 5.13027 88.5361 4.55927C88.5071 3.70527 88.2301 0.82427 88.5751 0.32827C90.0111 -1.44273 95.6292 4.47227 96.6472 5.68327C99.2022 8.74427 100.911 12.4343 102.139 16.2043C102.874 18.4733 103.486 20.7933 103.764 23.1673C103.767 23.3283 103.802 23.5253 103.83 23.7283C103.848 23.7833 103.858 23.8433 103.856 23.9073C103.857 23.9393 103.858 23.9703 103.86 24.0023C103.863 24.0493 103.865 24.0953 103.866 24.1403C103.897 24.8333 103.909 25.5273 103.918 26.2213ZM61.1462 38.9213C62.5592 40.6843 64.2441 42.2053 65.6971 43.9343C65.6631 43.8673 65.6302 43.8003 65.5952 43.7343C64.6902 42.0163 63.3841 40.5593 62.3511 38.9233C61.6381 37.7573 61.0242 36.4143 61.0192 35.0303C60.9792 34.9923 60.9402 34.9473 60.9052 34.8933C59.9302 32.7943 59.8172 30.3793 59.8602 28.0973C60.0352 24.0183 61.5802 20.1473 63.4642 16.5723C64.2662 15.0093 65.2742 13.5493 65.9402 11.9183C66.3692 10.8013 66.6861 9.31627 65.7441 8.37427C65.1261 7.80427 64.1992 7.64827 63.4062 7.89427C62.5122 8.15327 61.8071 8.80827 61.1531 9.44127C60.8091 9.79927 60.4892 10.1753 60.1912 10.5663C60.4312 11.1073 60.8731 12.2893 61.2621 14.3333C61.8291 17.3153 60.2662 20.0473 59.1052 21.4813C58.0422 22.7943 56.4612 25.5573 56.2032 26.0103C56.3392 28.6283 56.8712 31.2173 57.8712 33.6513C58.7162 35.5453 59.8642 37.2963 61.1462 38.9213ZM101.01 37.3313C102.166 33.9623 102.874 30.4013 102.839 26.8373C102.832 26.0523 102.822 25.2673 102.794 24.4813C102.796 24.4533 102.796 24.4233 102.795 24.3943C102.726 24.1303 102.774 23.8123 102.716 23.5513C102.653 22.9863 102.571 22.4243 102.479 21.8633C101.996 19.1503 101.157 16.5133 100.183 13.9403C99.3272 11.8053 98.2511 9.73527 96.9241 7.85127C93.3351 10.1153 88.6551 7.56427 88.6531 7.56327C88.5911 7.60827 88.5311 7.65327 88.4731 7.69927C87.9811 8.06627 87.5071 8.43227 87.0461 8.79827C86.1261 9.53827 85.2211 10.2973 84.3091 11.0473C83.6041 11.5763 82.8062 12.4753 81.8392 12.1263C81.6132 12.0703 81.3912 11.9643 81.1772 11.8743C80.8722 11.7473 80.5702 11.6163 80.2662 11.4873C79.5202 11.1703 78.7632 10.8533 77.9752 10.6533C77.5562 10.5473 76.9132 10.3743 76.5262 10.6643C76.3562 10.7923 76.6871 11.1043 76.7781 11.2043C76.9161 11.3563 77.0712 11.4933 77.2162 11.6403C77.4632 11.8923 77.7092 12.1453 77.9412 12.4123C81.4602 16.4473 84.6092 22.1633 83.1472 27.6473C82.5532 29.7833 81.4921 31.8303 79.8901 33.3833C79.5701 33.6543 79.1061 34.2693 78.6841 34.4203C78.5441 34.5453 78.3432 34.6033 78.1332 34.5183C78.0662 34.4683 77.9981 34.4193 77.9291 34.3713C77.8981 34.3363 77.8702 34.2973 77.8472 34.2553C77.8542 34.2693 77.8611 34.2833 77.8691 34.2973C77.8851 34.3203 77.9032 34.3443 77.9232 34.3673C77.2992 33.9353 76.5982 33.6343 75.8412 33.5113C73.7052 33.1083 71.4351 33.6123 69.6661 34.8743C68.6691 35.5693 67.9491 36.5613 67.2281 37.5193C66.9071 37.9003 66.3162 38.0623 65.8782 37.7853C65.3192 37.4243 65.1612 36.7283 64.9432 36.1413C64.5762 35.1573 64.2022 33.5223 63.0812 33.1833C61.9962 33.3963 62.0112 35.0983 62.2192 35.9463C62.4922 37.1463 63.1871 38.2763 63.8771 39.2543C65.2111 41.0823 66.6221 42.9033 67.3721 45.0663C67.7021 46.0023 67.9392 46.9773 68.0342 47.9673C68.0792 47.9673 68.1252 47.9673 68.1732 47.9633C69.0432 47.7133 69.7251 47.0373 70.4471 46.5173C72.7651 44.7613 75.3611 43.0233 78.3221 42.7183C81.1471 42.4403 84.0471 43.4643 86.1141 45.4003C86.3691 45.6563 86.7002 46.0283 86.7272 46.3823C86.7592 46.6933 86.4862 46.9793 86.1732 46.9623C85.7572 46.9513 85.7252 46.6043 85.5142 46.3483C84.9132 45.6763 84.1251 45.2033 83.3431 44.7723C81.3791 43.7293 79.0111 43.4753 76.8741 44.0953C74.9471 44.7383 73.1811 45.8123 71.5621 47.0263C70.2561 47.9423 68.7822 49.6523 67.0392 48.8423C65.9522 48.3253 65.3571 47.2023 64.4941 46.4143C63.6231 45.5373 62.2242 45.6253 62.4832 47.1453C62.8392 48.7183 63.7731 50.1113 64.7261 51.3893C65.4401 52.3213 66.1791 53.2403 67.0511 54.0313C67.9091 54.8213 68.9121 55.4323 69.9501 55.9563C71.3481 54.3023 75.7532 49.4113 80.0892 48.0353C84.4182 46.6613 91.6291 47.5543 94.0201 47.9083C97.0931 44.9513 99.5731 41.3533 101.01 37.3313ZM86.6971 25.0073C89.5601 24.9913 91.6572 27.1513 92.1002 29.8923C92.2282 30.6493 92.2381 31.4213 92.2311 32.1873C92.2121 33.6283 92.0842 35.0873 91.5832 36.4493C90.9722 38.3503 89.4052 40.2033 87.2172 39.8263C86.4502 39.7023 85.7661 39.2623 85.2571 38.6863C84.2931 37.6073 84.1472 36.0913 84.2092 34.7053C84.2522 33.4253 84.3942 32.1383 84.2322 30.8613C84.1502 30.1533 85.1882 30.0003 85.3062 30.7033C85.4762 32.0393 85.3442 33.3823 85.2942 34.7203C85.2732 35.6463 85.2742 36.6213 85.7202 37.4593C85.8632 37.7273 86.0362 37.9533 86.2292 38.1403C86.2472 37.7483 86.2432 37.3553 86.2352 36.9623C86.2412 36.6093 86.1752 36.2563 86.1942 35.9063C86.3042 35.2633 87.2562 35.3283 87.2722 35.9853C87.3402 36.8973 87.3471 37.8133 87.2831 38.7253C87.5701 38.7913 87.8672 38.7963 88.1602 38.7423C88.1562 38.7123 88.1541 38.6833 88.1551 38.6523C88.1931 37.8193 88.1071 36.9873 87.9941 36.1623C87.9001 35.4933 88.8502 35.2793 89.0532 35.9243C89.0992 36.3133 89.2681 37.4183 89.2601 38.2093C89.3861 38.1043 89.5081 37.9833 89.6221 37.8473C90.6771 36.4813 91.0392 34.7093 91.1202 33.0173C91.1642 31.7103 91.2212 30.3533 90.7762 29.1013C90.2152 27.4203 88.7241 26.1553 86.9211 26.0993C86.4701 26.0373 85.8142 26.3423 85.6302 25.7453C85.4862 25.0713 86.1921 24.9843 86.6971 25.0073ZM90.0771 15.8503C90.6921 15.5313 92.0062 14.4933 92.3132 15.6533C92.3932 16.3403 92.5951 17.7403 91.5901 17.7743C91.4131 17.7603 91.2572 17.6643 91.0962 17.5973C90.8132 17.4793 90.5232 17.3833 90.2552 17.2323C89.6322 16.9323 89.3391 16.2223 90.0771 15.8503ZM101.539 29.2683C102.114 29.6253 101.639 30.1673 101.444 30.6003C101.13 31.2763 100.954 32.0023 100.821 32.7323C100.488 34.6043 100.317 36.5873 99.2662 38.2263C98.6562 39.2373 97.5331 40.1093 96.2961 39.9463C93.7621 39.4683 93.2062 36.4573 93.2342 34.2723C93.2242 31.9913 93.4791 29.6683 94.2621 27.5163C95.0041 25.4513 97.4062 22.7873 99.7532 22.9363C100.455 23.1593 100.16 24.0823 99.5511 24.0013C98.5761 24.0573 97.7201 24.6643 97.0231 25.3083C95.6041 26.5823 94.9572 28.4403 94.6492 30.2753C94.3062 32.4033 93.8952 36.1433 95.1572 37.9763C95.1462 37.2153 95.1402 36.4533 95.1382 35.6923C95.1302 35.0213 96.1051 34.9303 96.2181 35.5973C96.2311 35.8413 96.2231 36.0813 96.2261 36.3253C96.2361 37.0953 96.2311 37.8663 96.2571 38.6363C96.2611 38.7003 96.2522 38.7603 96.2332 38.8153C96.5502 38.9013 96.8721 38.8723 97.1811 38.7433C97.1761 38.7133 97.1722 38.6833 97.1702 38.6513C97.1372 37.6073 97.1221 36.5633 97.0591 35.5223C97.0231 35.0003 97.6951 34.7123 98.0281 35.1293C98.1211 35.2443 98.1612 35.3993 98.1442 35.5423C98.1512 35.8013 98.1802 36.0593 98.1882 36.3183C98.2102 36.8213 98.2202 37.3253 98.2322 37.8283C98.2532 37.7983 98.2731 37.7683 98.2931 37.7373C98.8861 36.8223 99.1902 35.7613 99.3882 34.6983C99.6712 33.2193 99.7782 31.6773 100.396 30.2853C100.631 29.8373 100.867 28.9443 101.539 29.2683ZM90.9482 20.3813C91.6432 20.2933 92.3191 20.0733 92.9341 19.7383C93.3811 19.4853 93.7822 19.1483 94.1102 18.7523C94.4312 18.4073 94.6511 17.6473 95.2541 17.9513C95.5071 18.0863 95.6272 18.4313 95.4772 18.6863C95.0092 19.4863 94.3432 20.1763 93.5392 20.6423C92.8622 21.0293 92.1172 21.2873 91.3492 21.4213C90.8192 21.5123 89.8662 21.6353 89.9772 20.8153C90.1162 20.3053 90.5442 20.4203 90.9482 20.3813ZM76.3741 10.7133C76.3721 10.7123 76.3702 10.7113 76.3702 10.7113C76.3512 10.7003 76.3311 10.6893 76.3121 10.6793L76.3072 10.6773C76.3112 10.6803 76.3132 10.6813 76.3162 10.6843C76.3452 10.6983 76.3712 10.7133 76.3972 10.7303C76.3892 10.7253 76.3811 10.7193 76.3741 10.7133Z" fill="#015073"/>
<path d="M6.94612 32.976C7.48046 32.976 7.9116 32.7821 8.23884 32.3937C8.56682 32.0053 8.83952 31.4835 9.05841 30.8275C9.27657 30.1723 9.45273 29.4139 9.58613 28.5523C9.71953 27.69 9.84702 26.7739 9.96863 25.8032C10.0173 25.3662 10.0659 24.8502 10.1146 24.2555C10.1625 23.6607 10.2178 22.8957 10.2782 21.9611C10.3387 21.0266 10.4116 19.8613 10.4963 18.4661C10.5818 17.0702 10.6851 15.3529 10.8059 13.3136C10.8303 12.9738 10.8671 12.7431 10.915 12.6215C10.9636 12.5006 11.1213 12.4395 11.3889 12.4395H13.3914C14.2169 12.4395 14.8662 12.5124 15.3394 12.6583C15.8126 12.8035 16.1707 12.9856 16.4132 13.2045C16.6564 13.4226 16.8016 13.6592 16.8503 13.9142C16.8989 14.1693 16.9232 14.4184 16.9232 14.6609C16.9232 14.9033 16.9114 15.462 16.8871 16.3361C16.8628 17.2095 16.826 18.2229 16.7773 19.3764C16.7294 20.5291 16.6623 21.737 16.5776 22.9988C16.4921 24.2614 16.4014 25.4023 16.3041 26.4216C16.1589 27.8057 15.9341 29.2194 15.6305 30.6639C15.3276 32.1085 14.836 33.4248 14.1557 34.6144C13.4762 35.8039 12.5718 36.7753 11.4435 37.5278C10.3143 38.2804 8.85206 38.6562 7.05593 38.6562C6.0602 38.6562 5.16839 38.5346 4.37903 38.2921C3.59041 38.0497 2.92268 37.7158 2.37654 37.2905C1.83041 36.866 1.41174 36.3685 1.12062 35.798C0.829493 35.2276 0.683594 34.6269 0.683594 33.9953C0.683594 33.413 0.798566 32.8853 1.02926 32.4114C1.25994 31.9382 1.5695 31.5439 1.95792 31.2285C2.34633 30.913 2.78927 30.6698 3.28676 30.5003C3.78499 30.33 4.30015 30.2453 4.8345 30.2453C4.98043 30.2453 5.08365 30.3846 5.14408 30.6639C5.20452 30.9433 5.29002 31.2587 5.3991 31.6103C5.50818 31.9626 5.67179 32.278 5.89069 32.5573C6.10885 32.8367 6.46116 32.976 6.94612 32.976Z" fill="#015073"/>
<path d="M25.6614 38.656C23.9861 38.656 22.5968 38.4195 21.492 37.9463C20.3879 37.4724 19.5079 36.8231 18.852 35.9983C18.1967 35.1729 17.7353 34.2081 17.4685 33.1033C17.2017 31.9985 17.0684 30.8156 17.0684 29.553C17.0684 28.0967 17.2438 26.6705 17.5961 25.2746C17.9484 23.8787 18.549 22.6346 19.3988 21.5423C20.2479 20.45 21.3711 19.57 22.7663 18.903C24.1623 18.2352 25.9038 17.9014 27.9918 17.9014C31.0505 17.9014 33.2409 18.648 34.5639 20.1405C35.8869 21.6337 36.5487 23.7276 36.5487 26.4214C36.5487 27.1739 36.4942 28.0053 36.3844 28.9162C36.2753 29.8265 36.0689 30.7301 35.7652 31.6285C35.4623 32.5269 35.0496 33.4003 34.5278 34.2501C34.006 35.0999 33.3441 35.8524 32.543 36.5076C31.7418 37.1628 30.777 37.6854 29.6487 38.0738C28.5195 38.4622 27.1907 38.656 25.6614 38.656ZM27.3727 22.7444C26.45 22.7444 25.7159 22.981 25.1698 23.4541C24.6236 23.9273 24.2109 24.4978 23.9316 25.1655C23.653 25.8333 23.4709 26.5371 23.3854 27.2771C23.3006 28.0178 23.2579 28.6428 23.2579 29.1528C23.2579 30.7544 23.5129 31.9321 24.0229 32.6847C24.5322 33.4372 25.2611 33.813 26.2075 33.813C27.0573 33.813 27.7552 33.5462 28.3014 33.0119C28.8475 32.4783 29.272 31.8349 29.5757 31.0824C29.8793 30.3299 30.0857 29.5412 30.1948 28.7158C30.3039 27.8903 30.3584 27.1982 30.3584 26.6403C30.3584 25.4264 30.1336 24.4734 29.6848 23.7821C29.2359 23.09 28.465 22.7444 27.3727 22.7444Z" fill="#015073"/>
<path d="M44.0501 21.6154C44.0501 22.1741 44.0133 22.8352 43.9411 23.6002C43.8681 24.3645 43.7892 25.1296 43.7037 25.8939C43.619 26.6589 43.5401 27.3745 43.4672 28.0423C43.3949 28.71 43.3581 29.2252 43.3581 29.59C43.3581 30.5121 43.5829 31.1982 44.0317 31.6471C44.4806 32.0959 45.0333 32.3207 45.6886 32.3207C46.8295 32.3207 47.7397 31.726 48.4193 30.5364C49.0988 29.3468 49.5241 27.7688 49.6936 25.8032L50.2765 18.9938C50.3009 18.727 50.3915 18.5383 50.5492 18.4292C50.707 18.3202 50.8831 18.2656 51.0777 18.2656H52.3882C52.8982 18.2656 53.3772 18.3084 53.8268 18.3931C54.2757 18.4779 54.6699 18.6356 55.0097 18.8663C55.3495 19.097 55.6171 19.4065 55.8109 19.795C56.0055 20.1834 56.102 20.6809 56.102 21.2874C56.102 21.5307 56.0843 21.9854 56.0475 22.6531C56.0114 23.3209 55.9509 24.2798 55.8654 25.5298C55.7807 26.7798 55.6657 28.3577 55.5198 30.263C55.3738 32.1689 55.2043 34.4935 55.0097 37.236C54.8888 38.8383 54.5307 40.1671 53.9359 41.2233C53.3411 42.2794 52.5945 43.1167 51.6968 43.7358C50.7983 44.3549 49.7909 44.7853 48.6743 45.0285C47.5577 45.271 46.4167 45.3926 45.2515 45.3926C44.0133 45.3926 42.879 45.2836 41.8472 45.0647C40.8154 44.8465 39.9235 44.5429 39.171 44.1544C38.4185 43.766 37.8296 43.3172 37.4051 42.8072C36.9798 42.2971 36.7676 41.751 36.7676 41.1687C36.7676 40.7074 36.8707 40.3072 37.0771 39.9674C37.2835 39.6269 37.5569 39.3483 37.8967 39.1294C38.2365 38.9112 38.6308 38.7476 39.0796 38.6378C39.5292 38.5287 39.9965 38.4742 40.4815 38.4742C40.7247 38.4742 40.9001 38.5958 41.0099 38.8383C41.119 39.0807 41.2885 39.3542 41.5192 39.6578C41.7499 39.9607 42.1199 40.2342 42.6299 40.4767C43.1399 40.7199 43.9042 40.8408 44.9243 40.8408C45.822 40.8408 46.5501 40.6226 47.1088 40.1855C47.6667 39.7485 48.0979 39.1906 48.4015 38.5103C48.7044 37.8307 48.9049 37.0908 49.0022 36.2896C49.0988 35.4885 49.1474 34.7234 49.1474 33.9953C48.759 34.6755 48.3286 35.2276 47.8554 35.6521C47.3815 36.0774 46.8899 36.4046 46.3806 36.6353C45.8706 36.866 45.3606 37.0178 44.8513 37.0908C44.3413 37.163 43.8556 37.1999 43.3949 37.1999C42.4965 37.1999 41.6769 37.0782 40.9369 36.8358C40.1962 36.5925 39.5594 36.1982 39.0251 35.6521C38.4915 35.106 38.0787 34.3962 37.7869 33.5221C37.4958 32.648 37.3506 31.5925 37.3506 30.3543C37.3506 29.893 37.3741 29.2805 37.4228 28.5155C37.4714 27.7512 37.5326 26.8888 37.6048 25.93C37.6778 24.9711 37.7567 23.9334 37.8422 22.8168C37.9269 21.7002 38.0176 20.5593 38.1149 19.394C38.1635 18.6415 38.5033 18.2656 39.1342 18.2656H40.2994C41.0762 18.2656 41.7079 18.3386 42.1929 18.4838C42.6786 18.6297 43.061 18.842 43.3396 19.1213C43.619 19.4006 43.8069 19.7522 43.9042 20.1775C44.0015 20.602 44.0501 21.0818 44.0501 21.6154Z" fill="#015073"/>
<path d="M114.183 36.5256C115.178 36.5256 116.021 36.3797 116.713 36.0886C117.405 35.7974 117.993 35.4695 118.479 35.1054C118.965 34.7413 119.396 34.414 119.772 34.1222C120.148 33.831 120.53 33.6858 120.918 33.6858C121.404 33.6858 121.647 34.0499 121.647 34.7781C121.647 35.1665 121.598 35.6338 121.501 36.18C121.404 36.7261 121.271 37.3386 121.101 38.0188C121.004 38.4316 120.767 38.8804 120.391 39.3661C120.014 39.8511 119.498 40.3066 118.843 40.7311C118.188 41.1563 117.381 41.5079 116.422 41.7873C115.463 42.0666 114.365 42.2059 113.127 42.2059C111.888 42.2059 110.65 42.0238 109.413 41.6597C108.175 41.2957 107.07 40.6765 106.099 39.8024C105.128 38.9291 104.339 37.7513 103.732 36.2706C103.125 34.7899 102.822 32.9333 102.822 30.6994C102.822 29.899 102.877 28.9704 102.986 27.9142C103.095 26.858 103.307 25.7724 103.623 24.6551C103.939 23.5385 104.382 22.4403 104.952 21.3598C105.523 20.2801 106.257 19.3153 107.155 18.4655C108.053 17.6157 109.152 16.9303 110.45 16.4085C111.749 15.8859 113.296 15.625 115.093 15.625C116.525 15.625 117.769 15.7953 118.825 16.135C119.881 16.4748 120.755 16.9421 121.447 17.5368C122.138 18.1316 122.648 18.8296 122.976 19.6307C123.303 20.4319 123.467 21.2809 123.467 22.1794C123.467 23.733 123.012 24.8681 122.102 25.5837C121.192 26.3001 119.899 26.6583 118.224 26.6583C117.69 26.6583 117.356 26.6155 117.223 26.5308C117.09 26.4453 117.023 26.2699 117.023 26.0023C116.998 25.1776 116.974 24.4612 116.95 23.8546C116.925 23.2473 116.84 22.7439 116.695 22.343C116.549 21.9428 116.325 21.6517 116.021 21.4696C115.718 21.2876 115.299 21.1962 114.765 21.1962C113.988 21.1962 113.327 21.3598 112.781 21.6878C112.234 22.0158 111.773 22.4403 111.397 22.9621C111.021 23.4839 110.717 24.0728 110.487 24.728C110.256 25.384 110.074 26.051 109.94 26.7305C109.807 27.4108 109.722 28.066 109.685 28.6969C109.649 29.3285 109.631 29.8747 109.631 30.3353C109.631 32.5693 110.001 34.159 110.742 35.1054C111.482 36.0524 112.629 36.5256 114.183 36.5256Z" fill="#015073"/>
<path d="M122.812 37.3629C122.812 35.1783 123.796 33.4669 125.762 32.2287C127.728 30.9913 130.629 30.3235 134.464 30.2262C134.488 29.9594 134.507 29.7346 134.519 29.5526C134.531 29.3705 134.537 29.1465 134.537 28.8789C134.537 28.1021 134.392 27.483 134.1 27.0224C133.809 26.561 133.202 26.3303 132.28 26.3303C131.77 26.3303 131.358 26.4033 131.041 26.5485C130.726 26.6944 130.471 26.8949 130.277 27.1499C130.083 27.4041 129.925 27.7137 129.804 28.0778C129.682 28.4419 129.573 28.8428 129.476 29.2799C129.427 29.498 129.318 29.6381 129.148 29.6985C128.978 29.7589 128.712 29.7892 128.348 29.7892C125.871 29.7892 124.633 28.8546 124.633 26.9855C124.633 26.233 124.809 25.5174 125.161 24.8371C125.513 24.1575 126.035 23.5694 126.727 23.0712C127.419 22.5737 128.286 22.1794 129.33 21.8882C130.374 21.5971 131.588 21.4512 132.972 21.4512C135.666 21.4512 137.62 22.0091 138.834 23.1257C140.048 24.243 140.654 25.8203 140.654 27.8596C140.654 28.1264 140.624 28.6062 140.564 29.2976C140.503 29.9896 140.43 30.7178 140.345 31.4828C140.26 32.2471 140.187 32.9694 140.127 33.649C140.066 34.3285 140.035 34.8024 140.035 35.0692C140.035 35.6758 140.144 36.107 140.363 36.362C140.582 36.617 140.831 36.7924 141.11 36.8897C141.389 36.987 141.638 37.0599 141.856 37.1086C142.075 37.1565 142.184 37.2781 142.184 37.4727C142.184 38.0063 142.111 38.5524 141.966 39.1111C141.82 39.669 141.583 40.179 141.255 40.6404C140.928 41.1011 140.478 41.4777 139.908 41.7688C139.337 42.0599 138.639 42.2059 137.815 42.2059C136.649 42.2059 135.775 41.9265 135.192 41.3686C134.61 40.8099 134.222 40.0331 134.028 39.0381C133.445 39.8879 132.686 40.6279 131.752 41.2595C130.817 41.8904 129.598 42.2059 128.093 42.2059C127.364 42.2059 126.678 42.1211 126.035 41.9508C125.392 41.7813 124.833 41.502 124.36 41.1136C123.887 40.7252 123.511 40.2218 123.231 39.6027C122.953 38.9836 122.812 38.237 122.812 37.3629ZM134.137 33.2119C133.505 33.2119 132.887 33.2606 132.28 33.3578C131.673 33.4551 131.133 33.607 130.66 33.8126C130.186 34.019 129.804 34.2924 129.513 34.6322C129.221 34.9719 129.076 35.3847 129.076 35.8704C129.076 36.4283 129.251 36.8167 129.604 37.0356C129.956 37.2538 130.338 37.3629 130.75 37.3629C131.139 37.3629 131.527 37.2781 131.916 37.1086C132.304 36.9383 132.65 36.6774 132.953 36.3251C133.257 35.9736 133.518 35.5424 133.736 35.0331C133.955 34.5231 134.088 33.9158 134.137 33.2119Z" fill="#015073"/>
<path d="M150.775 26.7304C150.702 27.6532 150.623 28.5634 150.539 29.4618C150.454 30.3595 150.375 31.2093 150.302 32.0105C150.229 32.8116 150.175 33.5273 150.138 34.1589C150.102 34.7898 150.084 35.2755 150.084 35.6153C150.084 36.2462 150.156 36.6648 150.302 36.8712C150.448 37.0775 150.69 37.1807 151.03 37.1807C151.297 37.1807 151.528 37.1321 151.722 37.0355C151.916 36.9382 152.098 36.8292 152.268 36.7075C152.438 36.5859 152.59 36.4769 152.723 36.3796C152.857 36.283 153.008 36.2344 153.179 36.2344C153.348 36.2344 153.507 36.3317 153.652 36.5255C153.798 36.7201 153.871 37.1689 153.871 37.8728C153.871 39.2075 153.507 40.2637 152.778 41.0405C152.05 41.8174 150.8 42.2058 149.028 42.2058C147.28 42.2058 145.987 41.7989 145.149 40.986C144.312 40.1731 143.894 38.929 143.894 37.2537C143.894 36.8896 143.912 36.4584 143.948 35.9609C143.984 35.4634 144.04 34.8141 144.112 34.013C144.185 33.2118 144.276 32.2286 144.385 31.0641C144.494 29.8989 144.61 28.4543 144.731 26.7304H142.801C142.607 26.7304 142.492 26.6884 142.456 26.6036C142.419 26.5182 142.4 26.3906 142.4 26.2211L142.51 24.3638C142.535 24.0484 142.577 23.7388 142.638 23.4352C142.698 23.1322 142.82 22.8588 143.002 22.6163C143.184 22.3731 143.445 22.1793 143.785 22.0333C144.124 21.8881 144.573 21.8152 145.132 21.8152C145.301 21.3781 145.496 20.8563 145.714 20.2497C145.933 19.6424 146.151 19.0543 146.369 18.4838C146.588 17.9134 146.8 17.4336 147.007 17.0451C147.213 16.6567 147.401 16.4629 147.571 16.4629H148.627C149.647 16.4629 150.351 16.7783 150.739 17.4092C151.128 18.0401 151.321 18.7926 151.321 19.6667C151.321 20.1524 151.285 20.8681 151.212 21.8152H155.036C155.424 21.8152 155.618 21.9854 155.618 22.3252L155.472 24.2909C155.424 25.019 155.224 25.6079 154.872 26.0568C154.52 26.5064 153.798 26.7304 152.705 26.7304H150.775Z" fill="#015073"/>
</g>
<defs>
<clipPath id="clip0_155_307">
<rect width="155" height="58" fill="white" transform="translate(0.683594)"/>
</clipPath>
</defs>
</svg>
